<mxfile host="app.diagrams.net" modified="2023-07-25T13:26:23.505Z" agent="Mozilla/5.0 (Macintosh; Intel Mac OS X 10_15_7) AppleWebKit/605.1.15 (KHTML, like Gecko) Version/16.3 Safari/605.1.15" etag="Uxf54myegQ-ZlKXtPGVc" version="21.6.5" type="github">
  <diagram name="Page-1" id="jFSEn8R291QbM1Cyfx7A">
    <mxGraphModel dx="954" dy="647" grid="1" gridSize="10" guides="1" tooltips="1" connect="1" arrows="1" fold="1" page="1" pageScale="1" pageWidth="827" pageHeight="1169" math="0" shadow="0">
      <root>
        <mxCell id="0" />
        <mxCell id="1" parent="0" />
        <mxCell id="XB7XUtstNZMm8EJsR-XV-2" style="edgeStyle=orthogonalEdgeStyle;rounded=0;orthogonalLoop=1;jettySize=auto;html=1;" edge="1" parent="1" source="XB7XUtstNZMm8EJsR-XV-1" target="XB7XUtstNZMm8EJsR-XV-3">
          <mxGeometry relative="1" as="geometry">
            <mxPoint x="414" y="290" as="targetPoint" />
          </mxGeometry>
        </mxCell>
        <mxCell id="XB7XUtstNZMm8EJsR-XV-1" value="Material App" style="rounded=1;whiteSpace=wrap;html=1;" vertex="1" parent="1">
          <mxGeometry x="354" y="50" width="120" height="60" as="geometry" />
        </mxCell>
        <mxCell id="XB7XUtstNZMm8EJsR-XV-4" style="edgeStyle=orthogonalEdgeStyle;rounded=0;orthogonalLoop=1;jettySize=auto;html=1;" edge="1" parent="1" source="XB7XUtstNZMm8EJsR-XV-3">
          <mxGeometry relative="1" as="geometry">
            <mxPoint x="220" y="300" as="targetPoint" />
            <mxPoint x="344" y="190" as="sourcePoint" />
            <Array as="points">
              <mxPoint x="221" y="190" />
            </Array>
          </mxGeometry>
        </mxCell>
        <mxCell id="XB7XUtstNZMm8EJsR-XV-8" style="edgeStyle=orthogonalEdgeStyle;rounded=0;orthogonalLoop=1;jettySize=auto;html=1;" edge="1" parent="1" source="XB7XUtstNZMm8EJsR-XV-3" target="XB7XUtstNZMm8EJsR-XV-9">
          <mxGeometry relative="1" as="geometry">
            <mxPoint x="414" y="450" as="targetPoint" />
          </mxGeometry>
        </mxCell>
        <mxCell id="XB7XUtstNZMm8EJsR-XV-23" style="edgeStyle=orthogonalEdgeStyle;rounded=0;orthogonalLoop=1;jettySize=auto;html=1;entryX=0.5;entryY=0;entryDx=0;entryDy=0;" edge="1" parent="1" source="XB7XUtstNZMm8EJsR-XV-3" target="XB7XUtstNZMm8EJsR-XV-15">
          <mxGeometry relative="1" as="geometry" />
        </mxCell>
        <mxCell id="XB7XUtstNZMm8EJsR-XV-3" value="Scaffold" style="rounded=1;whiteSpace=wrap;html=1;" vertex="1" parent="1">
          <mxGeometry x="354" y="160" width="120" height="60" as="geometry" />
        </mxCell>
        <mxCell id="XB7XUtstNZMm8EJsR-XV-7" value="Background color" style="rounded=1;whiteSpace=wrap;html=1;" vertex="1" parent="1">
          <mxGeometry x="130" y="300" width="120" height="60" as="geometry" />
        </mxCell>
        <mxCell id="XB7XUtstNZMm8EJsR-XV-27" style="edgeStyle=orthogonalEdgeStyle;rounded=0;orthogonalLoop=1;jettySize=auto;html=1;" edge="1" parent="1" source="XB7XUtstNZMm8EJsR-XV-9" target="XB7XUtstNZMm8EJsR-XV-13">
          <mxGeometry relative="1" as="geometry">
            <Array as="points">
              <mxPoint x="414" y="490" />
              <mxPoint x="414" y="490" />
            </Array>
          </mxGeometry>
        </mxCell>
        <mxCell id="XB7XUtstNZMm8EJsR-XV-9" value="App Bar" style="rounded=1;whiteSpace=wrap;html=1;" vertex="1" parent="1">
          <mxGeometry x="354" y="300" width="120" height="60" as="geometry" />
        </mxCell>
        <mxCell id="XB7XUtstNZMm8EJsR-XV-13" value="text" style="rounded=1;whiteSpace=wrap;html=1;" vertex="1" parent="1">
          <mxGeometry x="354" y="500" width="120" height="60" as="geometry" />
        </mxCell>
        <mxCell id="XB7XUtstNZMm8EJsR-XV-20" style="edgeStyle=orthogonalEdgeStyle;rounded=0;orthogonalLoop=1;jettySize=auto;html=1;entryX=0.5;entryY=0;entryDx=0;entryDy=0;" edge="1" parent="1" source="XB7XUtstNZMm8EJsR-XV-15" target="XB7XUtstNZMm8EJsR-XV-19">
          <mxGeometry relative="1" as="geometry" />
        </mxCell>
        <mxCell id="XB7XUtstNZMm8EJsR-XV-15" value="Center" style="rounded=1;whiteSpace=wrap;html=1;" vertex="1" parent="1">
          <mxGeometry x="540" y="300" width="120" height="60" as="geometry" />
        </mxCell>
        <mxCell id="XB7XUtstNZMm8EJsR-XV-21" style="edgeStyle=orthogonalEdgeStyle;rounded=0;orthogonalLoop=1;jettySize=auto;html=1;" edge="1" parent="1" source="XB7XUtstNZMm8EJsR-XV-19" target="XB7XUtstNZMm8EJsR-XV-22">
          <mxGeometry relative="1" as="geometry">
            <mxPoint x="610" y="540" as="targetPoint" />
          </mxGeometry>
        </mxCell>
        <mxCell id="XB7XUtstNZMm8EJsR-XV-19" value="image" style="rounded=1;whiteSpace=wrap;html=1;" vertex="1" parent="1">
          <mxGeometry x="540" y="400" width="120" height="60" as="geometry" />
        </mxCell>
        <mxCell id="XB7XUtstNZMm8EJsR-XV-22" value="Network image" style="rounded=1;whiteSpace=wrap;html=1;" vertex="1" parent="1">
          <mxGeometry x="540" y="500" width="120" height="60" as="geometry" />
        </mxCell>
        <mxCell id="XB7XUtstNZMm8EJsR-XV-31" value="" style="edgeStyle=orthogonalEdgeStyle;rounded=0;orthogonalLoop=1;jettySize=auto;html=1;" edge="1" parent="1" source="XB7XUtstNZMm8EJsR-XV-9" target="XB7XUtstNZMm8EJsR-XV-12">
          <mxGeometry relative="1" as="geometry">
            <mxPoint x="310" y="620" as="targetPoint" />
            <mxPoint x="354" y="330" as="sourcePoint" />
          </mxGeometry>
        </mxCell>
        <mxCell id="XB7XUtstNZMm8EJsR-XV-12" value="Background Color" style="rounded=1;whiteSpace=wrap;html=1;" vertex="1" parent="1">
          <mxGeometry x="200" y="500" width="120" height="60" as="geometry" />
        </mxCell>
      </root>
    </mxGraphModel>
  </diagram>
</mxfile>
